<?xml version="1.0" encoding="UTF-8"?>
<svg id="Layer_2" data-name="Layer 2" xmlns="http://www.w3.org/2000/svg" viewBox="0 0 248.75 372.2">
  <defs>
    <style>
      .cls-1 {
        fill: #c13a2c;
      }

      .cls-1, .cls-2 {
        stroke-width: 0px;
      }

      .cls-2 {
        fill: #e74d3d;
      }
    </style>
  </defs>
  <g id="Hoppla">
    <path class="cls-2" d="M123.44,372.2c-1.58-2.75-3.17-5.5-4.74-8.26-3.86-6.81-7.69-13.65-11.58-20.44-12.86-22.42-25.74-44.82-38.61-67.23-6.35-11.05-12.71-22.09-19.04-33.14-6.46-11.27-12.89-22.57-19.36-33.84-5.06-8.81-10.26-17.54-15.23-26.39-1.84-3.27-3.39-6.71-4.79-10.23-1.52-3.81-3.1-7.6-4.33-11.5-1.96-6.22-3.24-12.59-4.26-19.04-1.52-9.66-2-19.34-.91-29.02.8-7.07,1.89-14.12,3.81-21.03,1.45-5.23,3.26-10.32,5.26-15.33,2.61-6.54,5.93-12.73,9.72-18.69,1.33-2.09,2.57-4.33,4.05-6.24,2.22-2.89,4.4-5.85,6.88-8.55,2.72-2.97,5.35-6.03,8.25-8.81,3.51-3.36,7.31-6.42,11.22-9.33,5.79-4.33,11.78-8.38,18.28-11.56,5-2.45,10.01-4.86,15.43-6.44,2.5-.73,5.03-1.58,7.51-2.5,3.23-1.2,6.69-1.53,10.05-2.25C108.78.7,116.65.18,124.53.01c4.27-.09,8.57.38,12.84.75,5.57.49,11.06,1.54,16.5,2.84,9.58,2.29,18.72,5.72,27.49,10.21,6.65,3.41,12.94,7.39,18.86,11.91,4.67,3.57,9.09,7.48,13.19,11.75,2.8,2.92,5.56,5.87,8.06,9.02,4.16,5.24,8.32,10.5,11.13,16.65,1.29,2.82,3.34,5.22,4.56,8.08,3.47,8.15,6.73,16.38,8.59,25.07,2.03,9.52,3.16,19.15,3,28.92-.07,4.3-.18,8.61-.62,12.87-.42,4.09-1.54,8.1-2.15,12.18-.62,4.1-2.31,7.92-3.01,11.99-.17.99-.72,1.91-1.11,2.86-2.32,5.61-4.48,11.27-7.33,16.67-2.61,4.94-5.85,9.48-8.5,14.4-3.13,5.81-6.69,11.39-9.86,17.19-2.22,4.05-4.94,7.84-7.03,11.96-1.63,3.22-3.76,6.13-5.35,9.39-1.6,3.29-3.67,6.38-5.52,9.57-2.63,4.53-5.17,9.11-7.87,13.59-2.84,4.71-5.51,9.52-8.27,14.27-2.32,3.98-4.59,8.01-6.88,12.02-2.17,3.79-4.4,7.57-6.65,11.32-2.51,4.18-4.93,8.41-7.36,12.64-1.96,3.43-4.05,6.79-5.96,10.23-2.86,5.18-5.75,10.35-8.84,15.39-2.82,4.61-5.1,9.53-8.15,14.02-1.54,2.26-2.64,4.82-4.01,7.2-3,5.27-6.04,10.51-9.08,15.76-.3.51-.56,1.08-1.75,1.46ZM79.94,60.18c-12.79,7.75-25.29,23.55-30.9,44.56-5.64,21.14-2.35,41.17,8.51,59.92,5.09,8.79,12,16.22,20.15,22.32,8.45,6.33,17.89,10.94,28.15,13.29,13.61,3.12,27.29,2.81,40.83-1,6.04-1.7,11.84-4.09,17.11-7.31,17.55-10.74,29.91-25.79,35.71-45.71,6.5-22.35,3.43-43.6-8.88-63.24-21.53-34.35-67.11-47.79-110.68-22.81Z"/>
    <path class="cls-1" d="M79.94,60.18c43.57-24.97,89.15-11.53,110.68,22.81,12.31,19.64,15.38,40.89,8.88,63.24-5.8,19.93-18.16,34.97-35.71,45.71-5.27,3.22-11.07,5.62-17.11,7.31-13.54,3.81-27.22,4.12-40.83,1-10.26-2.35-19.7-6.96-28.15-13.29-8.15-6.1-15.06-13.53-20.15-22.32-10.86-18.75-14.15-38.77-8.51-59.92,5.61-21.01,18.11-36.81,30.9-44.56ZM149.32,164.49c22.49-14.11,29.28-42.17,15.61-64.67-12.89-21.21-42.28-31.74-68.37-13.43-18.54,13.02-26.33,39.18-12.84,61.91,13.63,22.97,42.85,30.25,65.6,16.18Z"/>
  </g>
</svg>